<?xml version="1.0" encoding="UTF-8"?>
<svg width="500px" height="228px" viewBox="0 0 191 87" version="1.1" xmlns="http://www.w3.org/2000/svg" xmlns:xlink="http://www.w3.org/1999/xlink">
    <!-- Generator: Sketch 53.2 (72643) - https://sketchapp.com -->
    <title>RHT_CMYK</title>
    <desc>Created with Sketch.</desc>
    <defs>
        <polygon id="path-1" points="0.0381355932 0.198313433 149.545551 0.198313433 149.545551 85.6187761 0.0381355932 85.6187761"></polygon>
    </defs>
    <g id="1.0-Homepage" stroke="none" stroke-width="1" fill="none" fill-rule="evenodd">
        <g id="Animations-+-Rollovers-Guide" transform="translate(-200.000000, -4364.000000)">
            <g id="RHT_CMYK" transform="translate(200.000000, 4364.000000)">
                <path d="M94.473446,45 C84.0149384,45 78,39.8070103 78,28.4267942 L78,1 L86.1505008,1 L86.1505008,27.8437422 C86.1505008,33.9109857 88.2873128,37.530578 94.473446,37.530578 C100.657705,37.530578 102.846375,33.9109857 102.846375,27.8437422 L102.846375,1 L111,1 L111,28.2536297 C111,39.8070103 104.930704,45 94.473446,45" id="Fill-1" fill="#313F4E"></path>
                <g id="Group-5" transform="translate(0.000000, 1.000000)">
                    <mask id="mask-2" fill="white">
                        <use xlink:href="#path-1"></use>
                    </mask>
                    <g id="Clip-3"></g>
                    <polyline id="Fill-2" fill="#313F4E" mask="url(#mask-2)" points="142.454237 42.9306866 124.988771 13.4230597 124.881992 13.4230597 124.881992 42.9306866 117.740466 42.9306866 117.740466 0.198313433 125.359958 0.198313433 142.295975 28.5513582 142.398305 28.5513582 142.398305 0.198313433 149.545551 0.198313433 149.545551 42.9306866 142.454237 42.9306866"></polyline>
                    <path d="M22.6252119,59.7468955 L8.29131356,59.7468955 L8.29131356,26.1844328 L15.4983051,26.1844328 L22.6271186,42.8851194 L22.6252119,42.8851194 L22.6252119,59.7468955 Z M8.29131356,7.41653731 L16.0665254,7.41653731 C21.2167373,7.41653731 23.6211864,9.20777612 23.6211864,13.4230597 C23.6211864,17.8103433 20.9358051,19.3698955 16.240678,19.3698955 L8.29131356,19.3698955 L8.29131356,7.41653731 Z M23.6771186,24.9149701 C28.4790254,23.1243731 31.857839,19.5444627 31.857839,13.5379403 C31.857839,5.91538806 27.8504237,0.198313433 16.2966102,0.198313433 L0,0.198313433 L0,85.6187761 L8.29131356,85.6187761 L8.29131356,67.1961642 L22.6252119,67.1961642 L22.6252119,85.6187761 L30.9184322,85.6187761 L30.9184322,42.9306866 L23.6771186,24.9149701 L23.6771186,24.9149701 Z" id="Fill-4" fill="#313F4E" mask="url(#mask-2)"></path>
                </g>
                <path d="M53.9729591,79.6129292 C47.5034313,79.6129292 44.130083,74.2998835 44.130083,64.8336553 C44.130083,55.3680687 47.5034313,50.0569476 53.9729591,50.0569476 C60.4412578,50.0569476 63.869917,55.3680687 63.869917,64.8336553 C63.869917,74.2998835 60.4412578,79.6129292 53.9729591,79.6129292 Z M44.130083,22.1663447 C44.130083,12.699475 47.5034313,7.38963692 53.9729591,7.38963692 C60.4412578,7.38963692 63.869917,12.699475 63.869917,22.1663447 C63.869917,31.6312898 60.4412578,36.9430524 53.9729591,36.9430524 C47.5034313,36.9430524 44.130083,31.6312898 44.130083,22.1663447 Z M59.8076411,43.5 C67.4804876,41.1276693 72,33.7393154 72,22.1663447 C72,7.90734132 65.1432961,0 53.9729591,0 C42.8007784,0 36,7.90734132 36,22.1663447 C36,33.7393154 40.4807948,41.1276693 48.1425791,43.5 C40.4807948,45.8729722 36,53.2613261 36,64.8336553 C36,79.0913756 42.8007784,87 53.9729591,87 C65.1432961,87 72,79.0913756 72,64.8336553 C72,53.2613261 67.4804876,45.8729722 59.8076411,43.5 L59.8076411,43.5 Z" id="Fill-6" fill="#313F4E"></path>
                <path d="M94.4696973,87 C84.0149384,87 78,81.7707027 78,70.313657 L78,44 L86.1505008,44 L86.1505008,69.7266018 C86.1505008,75.8368085 88.2873128,79.4805996 94.4696973,79.4805996 C100.657705,79.4805996 102.846375,75.8368085 102.846375,69.7266018 L102.846375,44 L111,44 L111,70.1353855 C111,81.7707027 104.930704,87 94.4696973,87" id="Fill-7" fill="#313F4E"></path>
                <path d="M133.705555,87 C124.199191,87 119.537191,82.9335826 117,77.1226277 L124.260191,74.2746968 C126.148628,77.8200674 128.863098,80.1431983 133.93748,80.1431983 C139.254587,80.1431983 141.616405,78.1103024 141.616405,74.682527 C141.616405,71.1940776 138.902571,69.8010747 133.17054,68.0565373 C124.199191,65.2667785 118.123404,63.6273261 118.123404,55.2017543 C118.123404,47.5330452 124.673842,43 133.409454,43 C141.676134,43 146.338134,46.4853219 148.817503,50.903274 L142.022432,54.3304238 C139.841706,51.5425415 137.245422,49.8568017 133.528276,49.8568017 C128.450717,49.8568017 126.50128,51.2635657 126.50128,53.8788081 C126.50128,56.9012553 128.514894,58.0040231 134.647232,59.8630283 C145.744662,63.1181639 150,67.1695691 150,74.436703 C150,81.6988329 144.5018,87 133.705555,87" id="Fill-8" fill="#313F4E"></path>
                <path d="M171.334356,35.5799905 L166.054578,35.5799905 L166.054578,7.44036304 L170.997848,7.44036304 C177.887924,7.44036304 182.828724,12.3833745 182.828724,21.5114691 C182.828724,30.6382713 178.22011,35.5799905 171.334356,35.5799905 Z M191,21.5114691 C191,9.30126149 184.388392,0 172.332148,0 L158,0 L158,86 L185.443607,86 L185.443607,78.5564062 L166.054578,78.5564062 L166.054578,67.0446817 L178.723328,67.0446817 L178.723328,59.6611794 L166.054578,59.6611794 L166.054578,50.418071 L185.162051,50.418071 L185.162051,42.9764157 L173.673858,42.9764157 C184.676739,42.2766403 191,32.971502 191,21.5114691 L191,21.5114691 Z" id="Fill-9" fill="#313F4E"></path>
                <polyline id="Fill-10" fill="#634D8E" points="158 46.4210941 34.050231 62 31 36.5789059 154.984548 21 158 46.4210941"></polyline>
                <polyline id="Fill-11" fill="#FFFFFE" points="46.0427807 56.7903095 44.0420677 57 42.1105169 43.4169911 36.2238859 44.0429788 36 42.4635162 49.7782531 41 50 42.5806961 44.114795 43.2048337 46.0427807 56.7903095"></polyline>
                <polyline id="Fill-12" fill="#FFFFFE" points="56.7243409 47.8212712 57.5652021 54.7860289 55.857645 55 54 39.5254877 55.7038664 39.312146 56.53058 46.1856514 65.2572056 45.0881057 64.4341828 38.2146004 66.1411248 38 68 53.4757709 66.2918278 53.6884833 65.4565026 46.7262429 56.7243409 47.8212712"></polyline>
                <polyline id="Fill-13" fill="#FFFFFE" points="84.0746076 37.5121405 74.0556218 38.6112813 74.7428326 43.6282406 83.706626 42.6456481 83.9149931 44.1548001 74.9545389 45.1391857 75.6591137 50.2828539 85.790965 49.1699664 86 50.6833022 74.0135477 52 72 37.3017557 83.8662405 36 84.0746076 37.5121405"></polyline>
                <path d="M94.2867653,36.0514837 L91.6708517,44.0542053 L98.8404638,43.2195804 L94.2867653,36.0514837 Z M104,48.1438669 L102.091004,48.3640144 L99.7367453,44.6487242 L91.172491,45.6424116 L89.8187925,49.7895294 L88,50 L93.2215914,34.191117 L94.884926,34 L104,48.1438669 L104,48.1438669 Z" id="Fill-14" fill="#FFFFFE"></path>
                <polyline id="Fill-15" fill="#FFFFFE" points="112.046253 45.7878753 110.040141 46 108.111762 32.4184684 102.226784 33.0425097 102 31.4614406 115.779634 30 116 31.5798358 110.112883 32.2057271 112.046253 45.7878753"></polyline>
                <path d="M125.856023,30.6584724 L120.979787,31.2321827 L121.773115,37.3737151 L126.620445,36.8030826 C128.986938,36.5242298 130.53184,35.157051 130.277461,33.1903079 C130.038499,31.3078977 128.406235,30.3586902 125.856023,30.6584724 Z M131.8108,43.7208475 L126.481692,38.3777082 L121.965184,38.9095599 L122.718684,44.7894754 L120.939317,45 L119,29.8643883 L125.789859,29.0659953 C129.26637,28.6554107 131.725365,30.1875621 132.074172,32.9114551 C132.400497,35.442675 130.784292,37.1244096 128.3587,37.8489344 L134,43.4623085 L131.8108,43.7208475 L131.8108,43.7208475 Z" id="Fill-16" fill="#FFFFFE"></path>
                <polyline id="Fill-17" fill="#FFFFFE" points="149.074699 28.5115428 139.060198 29.6142697 139.748044 34.6300336 148.708739 33.6444527 148.917764 35.1571909 139.954398 36.1421741 140.660943 41.2858424 150.792978 40.1723571 151 41.6827045 139.012784 43 137 28.3041464 148.866342 27 149.074699 28.5115428"></polyline>
            </g>
        </g>
    </g>
</svg>